<svg xmlns="http://www.w3.org/2000/svg" xmlns:xlink="http://www.w3.org/1999/xlink" viewBox="0 0 1438 1438"><defs><style>.cls-1{isolation:isolate;}.cls-2{mix-blend-mode:darken;fill:url(#Безымянный_градиент_34);}.cls-3,.cls-4{fill:#fff;}.cls-4{stroke:#000;stroke-miterlimit:10;}</style><linearGradient id="Безымянный_градиент_34" x1="563.69" y1="1355.19" x2="904.81" y2="-42.1" gradientUnits="userSpaceOnUse"><stop offset="0" stop-color="#0071bc"/><stop offset="0.52" stop-color="#113684"/><stop offset="0.8" stop-color="#1b1464"/></linearGradient></defs><g class="cls-1"><g id="Круг"><circle class="cls-2" cx="719" cy="719" r="719"/></g><g id="BGM"><path class="cls-3" d="M1013,820.11q0,20.83-12.76,35.82t-33.59,23q-20.83,8-46.77,8H775.73V627.49H931.34q21.25,0,36.78,9.69A66.85,66.85,0,0,1,991.93,662a65,65,0,0,1,8.29,31.62q0,18.65-11.26,35.45T956.85,754q25.93,6.59,41,24.13T1013,820.11ZM823.77,662.58V739.7h87.16a43.45,43.45,0,0,0,21.26-5.12,40.38,40.38,0,0,0,14.89-13.7,35.38,35.38,0,0,0,5.52-19.56,39.58,39.58,0,0,0-4.89-19.92,36.35,36.35,0,0,0-13.81-13.7,40.35,40.35,0,0,0-20.41-5.12ZM964.51,812.43a38.14,38.14,0,0,0-5.53-20.1,42.51,42.51,0,0,0-14.67-14.62q-9.15-5.48-21.47-5.48H823.77v79.68h96.09a45.26,45.26,0,0,0,22.75-5.67,46.8,46.8,0,0,0,15.95-14.44A33.78,33.78,0,0,0,964.51,812.43Z" transform="translate(-474.25 -94)"/><path class="cls-3" d="M1160.51,888.82a145.74,145.74,0,0,1-55.7-10.6,143.37,143.37,0,0,1-45.28-29.06,135.17,135.17,0,0,1-30.19-42.39,121.41,121.41,0,0,1-10.84-50.62,117.7,117.7,0,0,1,10.84-50.07,132.87,132.87,0,0,1,30.19-41.49,143.8,143.8,0,0,1,45.5-28.51q26.15-10.41,56.76-10.41,43.37,0,72.92,15.53t44.43,41.12L1242.57,705a78.49,78.49,0,0,0-34-31.8,107.06,107.06,0,0,0-47.62-10.6q-21.69,0-38.91,7.68a89.1,89.1,0,0,0-29.55,21,94.81,94.81,0,0,0-18.92,30.34,97.77,97.77,0,0,0-6.59,35.63,94.19,94.19,0,0,0,7.23,36.92,91.78,91.78,0,0,0,20.41,30.15,95.06,95.06,0,0,0,31,20.29,100.07,100.07,0,0,0,38.27,7.31,107.57,107.57,0,0,0,47.4-10.79q22.32-10.77,41.88-32.34v41.66Q1213.66,888.83,1160.51,888.82Zm87.59-102.7h-62.93v-30.7h103.32V887H1248.1Z" transform="translate(-474.25 -94)"/><path class="cls-3" d="M1562.74,887V702.05L1473.87,842.4h-28.06L1357,702.05V887h-48V627.49h51l99.92,158.26,99.92-158.26h51V887Z" transform="translate(-474.25 -94)"/></g><g id="BACKGRAUNDMUSIC"><path class="cls-4" d="M680.71,1119.79a22.15,22.15,0,0,1,1.33,24.83,21.74,21.74,0,0,1-9.19,8.06,31.41,31.41,0,0,1-14,2.94H626.75v-83.56h30.62a31.7,31.7,0,0,1,14.1,2.89,20.82,20.82,0,0,1,8.89,7.75,20.27,20.27,0,0,1,3,10.88,19.14,19.14,0,0,1-3.7,12,21.58,21.58,0,0,1-9.94,7.09A17.67,17.67,0,0,1,680.71,1119.79Zm-40.79-12.62h16.29q6.48,0,10.11-3.07t3.64-8.83q0-5.65-3.64-8.84t-10.11-3.19H639.92Zm28.31,33.91q3.81-3.37,3.81-9.38a12.37,12.37,0,0,0-4-9.74q-4.05-3.62-10.75-3.61H639.92v26.09h17.79Q664.42,1144.44,668.23,1141.08Z" transform="translate(-474.25 -94)"/><path class="cls-4" d="M741,1138.55H707.4l-5.78,17.07H687.87l28.78-83.68H731.9l28.77,83.68H746.81Zm-3.7-11.18-13.06-38.84-13.17,38.84Z" transform="translate(-474.25 -94)"/><path class="cls-4" d="M765,1091.66a39.81,39.81,0,0,1,14.9-15.21,42.36,42.36,0,0,1,43.45,1.08,37.05,37.05,0,0,1,14.51,18.58H822a21.78,21.78,0,0,0-8.66-9.86,24.89,24.89,0,0,0-12.83-3.25,27.2,27.2,0,0,0-14.21,3.73,25.51,25.51,0,0,0-9.77,10.7,39.18,39.18,0,0,0,0,32.46,26,26,0,0,0,9.77,10.77,26.86,26.86,0,0,0,14.21,3.78,25,25,0,0,0,12.83-3.24,21.84,21.84,0,0,0,8.66-9.86h15.84a36.71,36.71,0,0,1-14.51,18.51,40.94,40.94,0,0,1-22.82,6.5A40.06,40.06,0,0,1,765,1135.67a46.85,46.85,0,0,1,0-44Z" transform="translate(-474.25 -94)"/><path class="cls-4" d="M892.87,1155.62l-31.09-37.39v37.39H848.61v-83.56h13.17v38.11l31.2-38.11h16.53l-34.9,41.84,35.48,41.72Z" transform="translate(-474.25 -94)"/><path class="cls-4" d="M977.57,1096.11a21.74,21.74,0,0,0-8.66-9.44,25.36,25.36,0,0,0-12.83-3.19,27.24,27.24,0,0,0-14.22,3.73,25.77,25.77,0,0,0-9.76,10.58,37.67,37.67,0,0,0,0,31.8,25.63,25.63,0,0,0,9.76,10.64,27.14,27.14,0,0,0,14.22,3.73q10.74,0,17.45-6.25t8.2-17H951.57v-11h44.26v10.71a42.18,42.18,0,0,1-6.64,17.91,40.25,40.25,0,0,1-14,13,38.22,38.22,0,0,1-19.12,4.87,40.06,40.06,0,0,1-35.54-20.68,46.92,46.92,0,0,1,0-44A40.25,40.25,0,0,1,956.08,1071a40.66,40.66,0,0,1,22.82,6.55,37,37,0,0,1,14.5,18.58Z" transform="translate(-474.25 -94)"/><path class="cls-4" d="M1050.49,1155.62,1032,1122.2h-10.06v33.42h-13.17v-83.56h27.73q9.26,0,15.66,3.37a22.78,22.78,0,0,1,9.59,9,25.32,25.32,0,0,1,3.18,12.63,25.74,25.74,0,0,1-4.56,14.85q-4.57,6.67-14,9.08l19.87,34.62Zm-28.55-44.36h14.56q7.39,0,11.16-3.85t3.75-10.34q0-6.49-3.7-10.16t-11.21-3.67h-14.56Z" transform="translate(-474.25 -94)"/><path class="cls-4" d="M1097.81,1151a39.79,39.79,0,0,1-14.91-15.27,47,47,0,0,1,0-44.07,40.25,40.25,0,0,1,35.53-20.68,40.55,40.55,0,0,1,20.75,5.47,39.52,39.52,0,0,1,14.84,15.21,47.35,47.35,0,0,1,0,44.07,39.41,39.41,0,0,1-14.84,15.27,41.85,41.85,0,0,1-41.37,0Zm34.84-10.22a25.9,25.9,0,0,0,9.76-10.83,39.21,39.21,0,0,0,0-32.52,25.49,25.49,0,0,0-9.76-10.7,29,29,0,0,0-28.43,0,25.42,25.42,0,0,0-9.76,10.7,39.21,39.21,0,0,0,0,32.52,25.84,25.84,0,0,0,9.76,10.83,28.62,28.62,0,0,0,28.43,0Z" transform="translate(-474.25 -94)"/><path class="cls-4" d="M1185.46,1072.06v53.27q0,9.5,4.79,14.3t13.35,4.81q8.67,0,13.46-4.81t4.8-14.3v-53.27H1235v53q0,10.23-4.28,17.32a26.85,26.85,0,0,1-11.44,10.58,37.51,37.51,0,0,1-31.6,0,26.28,26.28,0,0,1-11.27-10.58q-4.15-7.1-4.16-17.32v-53Z" transform="translate(-474.25 -94)"/><path class="cls-4" d="M1318.11,1155.62h-13.17l-39.64-62.4v62.4h-13.17v-83.68h13.17l39.64,62.28v-62.28h13.17Z" transform="translate(-474.25 -94)"/><path class="cls-4" d="M1377.22,1077.17a35.85,35.85,0,0,1,14.91,14.67q5.25,9.56,5.25,22.3t-5.25,22.13a35.31,35.31,0,0,1-14.91,14.36q-9.65,5-22.48,5h-26.23v-83.56h26.23Q1367.57,1072.06,1377.22,1077.17Zm-.87,59.34q7.51-7.93,7.51-22.37t-7.51-22.72q-7.51-8.18-21.61-8.18h-13v61.2h13Q1368.84,1144.44,1376.35,1136.51Z" transform="translate(-474.25 -94)"/><path class="cls-4" d="M1490.41,1072.06v83.56h-13.18v-57.23l-24.49,57.23h-9.13L1419,1098.39v57.23h-13.17v-83.56H1420l28.2,65.53,28.08-65.53Z" transform="translate(-474.25 -94)"/><path class="cls-4" d="M1520.8,1072.06v53.27q0,9.5,4.79,14.3t13.35,4.81q8.67,0,13.46-4.81t4.8-14.3v-53.27h13.17v53q0,10.23-4.28,17.32a26.89,26.89,0,0,1-11.43,10.58,35.66,35.66,0,0,1-15.84,3.49,35.27,35.27,0,0,1-15.77-3.49,26.28,26.28,0,0,1-11.27-10.58q-4.15-7.1-4.16-17.32v-53Z" transform="translate(-474.25 -94)"/><path class="cls-4" d="M1599.37,1153.52a24,24,0,0,1-10.16-8.36,21.76,21.76,0,0,1-3.7-12.62h14.09a13.47,13.47,0,0,0,4.11,8.9q3.63,3.48,10.22,3.48,6.83,0,10.64-3.42a11.35,11.35,0,0,0,3.81-8.84,9.86,9.86,0,0,0-2.37-6.85,15.8,15.8,0,0,0-5.89-4.09,86.35,86.35,0,0,0-9.77-3.13,88,88,0,0,1-12.77-4.39,21.19,21.19,0,0,1-8.37-6.91c-2.32-3.13-3.47-7.29-3.47-12.51a22.83,22.83,0,0,1,3.47-12.62,22.37,22.37,0,0,1,9.7-8.3,34.13,34.13,0,0,1,14.45-2.88q11.67,0,19.12,6.07t8.26,16.65h-14.56a11.06,11.06,0,0,0-4.16-7.81q-3.81-3.26-10-3.25a13.87,13.87,0,0,0-9.25,3q-3.57,3-3.58,8.65a9,9,0,0,0,2.26,6.32,15.78,15.78,0,0,0,5.72,3.9,83.54,83.54,0,0,0,9.47,3.13,96,96,0,0,1,13,4.57,21.82,21.82,0,0,1,8.55,7q3.52,4.76,3.53,12.69a23.43,23.43,0,0,1-3.3,12,24.11,24.11,0,0,1-9.59,9.08,30.67,30.67,0,0,1-14.85,3.43A34.69,34.69,0,0,1,1599.37,1153.52Z" transform="translate(-474.25 -94)"/><path class="cls-4" d="M1670.44,1072.06v83.56h-13.17v-83.56Z" transform="translate(-474.25 -94)"/><path class="cls-4" d="M1688.87,1091.66A40.25,40.25,0,0,1,1724.4,1071a40.69,40.69,0,0,1,22.83,6.55,37.09,37.09,0,0,1,14.5,18.58H1745.9a21.75,21.75,0,0,0-8.67-9.86,24.87,24.87,0,0,0-12.83-3.25,27.23,27.23,0,0,0-14.21,3.73,25.42,25.42,0,0,0-9.76,10.7,39.08,39.08,0,0,0,0,32.46,25.91,25.91,0,0,0,9.76,10.77,26.89,26.89,0,0,0,14.21,3.78,25,25,0,0,0,12.83-3.24,21.8,21.8,0,0,0,8.67-9.86h15.83a36.74,36.74,0,0,1-14.5,18.51,41,41,0,0,1-22.83,6.5,40.06,40.06,0,0,1-35.53-20.68,46.85,46.85,0,0,1,0-44Z" transform="translate(-474.25 -94)"/></g></g></svg>