<?xml version="1.0" encoding="utf-8"?>
<!-- Generator: Adobe Illustrator 25.0.0, SVG Export Plug-In . SVG Version: 6.00 Build 0)  -->
<svg version="1.1" xmlns="http://www.w3.org/2000/svg" xmlns:xlink="http://www.w3.org/1999/xlink" x="0px" y="0px"
	 viewBox="0 0 2430 1626" style="enable-background:new 0 0 2430 1626;" xml:space="preserve">
<style type="text/css">
	.st0{fill:url(#SVGID_1_);}
	.st1{fill:#FFFFFF;}
</style>
<g id="Круг">
	<linearGradient id="SVGID_1_" gradientUnits="userSpaceOnUse" x1="1094.7916" y1="1464.6934" x2="1435.912" y2="67.3954">
		<stop  offset="0" style="stop-color:#0071BC"/>
		<stop  offset="0.5159" style="stop-color:#113684"/>
		<stop  offset="0.8" style="stop-color:#1B1464"/>
	</linearGradient>
	<circle class="st0" cx="1250.1" cy="828.5" r="719"/>
</g>
<g id="Линейка">
</g>
<g id="BGM">
	<g>
		<g>
			<path class="st1" d="M1069.83,835.61c0,13.89-4.25,25.83-12.76,35.82c-8.5,9.99-19.7,17.67-33.59,23.03
				c-13.89,5.36-29.48,8.04-46.77,8.04H832.58v-259.5h155.62c14.17,0,26.43,3.23,36.78,9.69c10.34,6.46,18.28,14.75,23.81,24.85
				c5.53,10.11,8.29,20.65,8.29,31.61c0,12.43-3.76,24.25-11.27,35.45c-7.51,11.21-18.22,19.5-32.1,24.85
				c17.29,4.39,30.97,12.43,41.03,24.12C1064.79,805.27,1069.83,819.29,1069.83,835.61z M880.62,678.08v77.12h87.16
				c7.93,0,15.02-1.7,21.26-5.12c6.23-3.41,11.19-7.98,14.88-13.71c3.68-5.72,5.53-12.24,5.53-19.55c0-7.55-1.63-14.19-4.89-19.92
				c-3.26-5.72-7.87-10.29-13.82-13.71c-5.95-3.41-12.76-5.12-20.41-5.12H880.62z M1021.36,827.93c0-7.31-1.85-14.01-5.53-20.1
				c-3.69-6.09-8.58-10.96-14.67-14.62c-6.1-3.65-13.25-5.48-21.47-5.48h-99.07v79.68h96.09c8.5,0,16.08-1.88,22.75-5.67
				c6.66-3.77,11.97-8.59,15.94-14.44C1019.37,841.46,1021.36,835,1021.36,827.93z"/>
		</g>
		<g>
			<path class="st1" d="M1217.36,904.32c-19.84,0-38.41-3.53-55.7-10.6c-17.29-7.06-32.39-16.75-45.28-29.06
				c-12.9-12.3-22.96-26.44-30.19-42.4c-7.23-15.96-10.84-32.83-10.84-50.62c0-17.78,3.61-34.48,10.84-50.07
				c7.23-15.59,17.29-29.42,30.19-41.48c12.9-12.06,28.06-21.56,45.5-28.51s36.35-10.42,56.76-10.42c28.91,0,53.21,5.18,72.92,15.53
				c19.7,10.36,34.51,24.06,44.43,41.12l-36.57,22.66c-8.23-14.13-19.56-24.73-34.02-31.8c-14.46-7.06-30.33-10.6-47.62-10.6
				c-14.46,0-27.42,2.56-38.9,7.68c-11.48,5.12-21.33,12.12-29.55,21.02c-8.22,8.9-14.53,19.01-18.92,30.34
				c-4.4,11.33-6.59,23.21-6.59,35.64c0,13.16,2.4,25.46,7.23,36.91c4.82,11.46,11.62,21.51,20.41,30.15
				c8.78,8.65,19.13,15.41,31.04,20.29c11.9,4.88,24.66,7.31,38.27,7.31c16.72,0,32.53-3.59,47.41-10.78
				c14.88-7.18,28.84-17.96,41.88-32.35v41.67C1283.69,891.53,1252.79,904.32,1217.36,904.32z M1304.95,801.62h-62.93v-30.7h103.32
				v131.58h-40.39V801.62z"/>
		</g>
		<g>
			<path class="st1" d="M1619.59,902.49V717.55l-88.86,140.35h-28.06l-88.86-140.35v184.94h-48.05v-259.5h51.02l99.92,158.26
				l99.92-158.26h51.02v259.5H1619.59z"/>
		</g>
	</g>
</g>
<g id="BACKGRAUNDMUSIC">
	<g>
		<path class="st1" d="M744.81,1023.19c3.24,3.93,4.86,8.38,4.86,13.35c0,4.25-1.14,8.08-3.43,11.48c-2.29,3.41-5.59,6.09-9.91,8.06
			c-4.32,1.97-9.35,2.95-15.09,2.95h-34.67v-83.57h33.05c5.9,0,10.97,0.96,15.21,2.89c4.24,1.92,7.44,4.51,9.6,7.76
			c2.16,3.25,3.24,6.87,3.24,10.88c0,4.81-1.33,8.82-3.99,12.02c-2.66,3.21-6.23,5.57-10.72,7.09
			C737.62,1016.9,741.57,1019.26,744.81,1023.19z M700.79,1010.57h17.58c4.66,0,8.29-1.02,10.91-3.07c2.62-2.04,3.93-4.99,3.93-8.84
			c0-3.77-1.31-6.71-3.93-8.84c-2.62-2.12-6.26-3.19-10.91-3.19h-17.58V1010.57z M731.34,1044.47c2.74-2.24,4.12-5.37,4.12-9.38
			c0-4.09-1.46-7.33-4.36-9.74c-2.91-2.4-6.78-3.61-11.6-3.61h-18.71v26.09h19.2C724.81,1047.84,728.6,1046.72,731.34,1044.47z"/>
		<path class="st1" d="M809.9,1041.95h-36.29l-6.24,17.07h-14.84l31.05-83.69h16.46l31.05,83.69h-14.96L809.9,1041.95z
			 M805.91,1030.77l-14.09-38.84l-14.22,38.84H805.91z"/>
		<path class="st1" d="M835.78,995.05c3.95-6.49,9.31-11.56,16.09-15.21c6.77-3.65,14.19-5.47,22.26-5.47
			c9.23,0,17.44,2.18,24.63,6.55c7.19,4.37,12.41,10.56,15.65,18.58h-17.08c-2.24-4.41-5.36-7.7-9.35-9.86
			c-3.99-2.17-8.6-3.25-13.84-3.25c-5.74,0-10.85,1.24-15.34,3.73c-4.49,2.49-8,6.05-10.54,10.7c-2.54,4.65-3.8,10.06-3.8,16.23
			c0,6.17,1.27,11.58,3.8,16.23c2.54,4.65,6.05,8.24,10.54,10.76c4.49,2.53,9.6,3.79,15.34,3.79c5.24,0,9.85-1.08,13.84-3.25
			c3.99-2.16,7.11-5.45,9.35-9.86h17.08c-3.24,8.02-8.46,14.19-15.65,18.52c-7.19,4.33-15.4,6.49-24.63,6.49
			c-8.15,0-15.59-1.82-22.32-5.47c-6.73-3.65-12.08-8.72-16.02-15.21c-3.95-6.49-5.92-13.83-5.92-22
			C829.86,1008.88,831.83,1001.55,835.78,995.05z"/>
		<path class="st1" d="M973.76,1059.02l-33.55-37.39v37.39H926v-83.57h14.22v38.12l33.67-38.12h17.83l-37.66,41.84l38.28,41.72
			H973.76z"/>
		<path class="st1" d="M1065.17,999.5c-2.24-4.17-5.36-7.31-9.35-9.44c-3.99-2.12-8.6-3.19-13.84-3.19
			c-5.74,0-10.85,1.24-15.34,3.73c-4.49,2.49-8,6.01-10.54,10.58c-2.54,4.57-3.8,9.86-3.8,15.87s1.27,11.32,3.8,15.93
			c2.54,4.61,6.05,8.16,10.54,10.64c4.49,2.49,9.6,3.73,15.34,3.73c7.73,0,14.01-2.08,18.83-6.25c4.82-4.17,7.77-9.82,8.85-16.95
			h-32.55v-10.94h47.76v10.7c-0.92,6.49-3.3,12.46-7.17,17.92c-3.87,5.45-8.9,9.8-15.09,13.05c-6.19,3.25-13.07,4.87-20.64,4.87
			c-8.15,0-15.59-1.82-22.32-5.47c-6.73-3.65-12.08-8.72-16.02-15.21c-3.95-6.49-5.92-13.83-5.92-22c0-8.18,1.97-15.51,5.92-22
			c3.95-6.49,9.31-11.56,16.09-15.21c6.77-3.65,14.19-5.47,22.26-5.47c9.23,0,17.44,2.18,24.63,6.55
			c7.19,4.37,12.41,10.56,15.65,18.58H1065.17z"/>
		<path class="st1" d="M1143.86,1059.02l-19.95-33.43h-10.85v33.43h-14.22v-83.57h29.93c6.65,0,12.28,1.12,16.9,3.37
			c4.61,2.25,8.06,5.25,10.35,9.02c2.29,3.77,3.43,7.98,3.43,12.62c0,5.45-1.64,10.4-4.93,14.85c-3.29,4.45-8.34,7.47-15.15,9.08
			l21.45,34.63H1143.86z M1113.06,1014.65h15.71c5.32,0,9.33-1.28,12.03-3.85c2.7-2.56,4.05-6.01,4.05-10.34
			c0-4.33-1.33-7.71-3.99-10.16c-2.66-2.44-6.69-3.67-12.1-3.67h-15.71V1014.65z"/>
		<path class="st1" d="M1191.74,975.46v53.27c0,6.33,1.72,11.1,5.18,14.31c3.45,3.21,8.25,4.81,14.4,4.81
			c6.23,0,11.08-1.6,14.53-4.81c3.45-3.21,5.17-7.98,5.17-14.31v-53.27h14.22v53.03c0,6.81-1.54,12.58-4.61,17.31
			c-3.08,4.73-7.19,8.26-12.35,10.58c-5.16,2.33-10.85,3.49-17.08,3.49c-6.24,0-11.91-1.16-17.02-3.49
			c-5.11-2.32-9.17-5.85-12.16-10.58c-2.99-4.73-4.49-10.5-4.49-17.31v-53.03H1191.74z"/>
		<path class="st1" d="M1334.9,1059.02h-14.22l-42.77-62.4v62.4h-14.22v-83.69h14.22l42.77,62.28v-62.28h14.22V1059.02z"/>
		<path class="st1" d="M1398.69,980.57c6.94,3.41,12.3,8.3,16.09,14.67c3.78,6.37,5.67,13.81,5.67,22.3c0,8.5-1.89,15.87-5.67,22.12
			c-3.78,6.25-9.15,11.04-16.09,14.37c-6.94,3.33-15.03,4.99-24.25,4.99h-28.31v-83.57h28.31
			C1383.66,975.46,1391.75,977.16,1398.69,980.57z M1397.75,1039.9c5.4-5.29,8.11-12.75,8.11-22.36c0-9.7-2.7-17.27-8.11-22.72
			c-5.41-5.45-13.18-8.18-23.32-8.18h-14.09v61.2h14.09C1384.58,1047.84,1392.35,1045.19,1397.75,1039.9z"/>
		<path class="st1" d="M1520.84,975.46v83.57h-14.22v-57.23l-26.44,57.23h-9.85l-26.56-57.23v57.23h-14.22v-83.57h15.34l30.43,65.53
			l30.3-65.53H1520.84z"/>
		<path class="st1" d="M1553.63,975.46v53.27c0,6.33,1.72,11.1,5.18,14.31c3.45,3.21,8.25,4.81,14.4,4.81
			c6.23,0,11.08-1.6,14.53-4.81c3.45-3.21,5.18-7.98,5.18-14.31v-53.27h14.22v53.03c0,6.81-1.54,12.58-4.61,17.31
			c-3.08,4.73-7.19,8.26-12.35,10.58c-5.16,2.33-10.85,3.49-17.08,3.49s-11.91-1.16-17.02-3.49c-5.11-2.32-9.17-5.85-12.16-10.58
			c-2.99-4.73-4.49-10.5-4.49-17.31v-53.03H1553.63z"/>
		<path class="st1" d="M1638.43,1056.92c-4.66-1.96-8.31-4.75-10.97-8.36c-2.66-3.61-3.99-7.82-3.99-12.62h15.21
			c0.33,3.61,1.81,6.57,4.43,8.9c2.62,2.33,6.3,3.49,11.04,3.49c4.9,0,8.73-1.14,11.47-3.43s4.12-5.23,4.12-8.84
			c0-2.8-0.85-5.09-2.56-6.85c-1.71-1.76-3.82-3.13-6.36-4.09c-2.54-0.96-6.05-2-10.54-3.13c-5.65-1.44-10.25-2.9-13.78-4.39
			c-3.54-1.48-6.55-3.79-9.04-6.91c-2.49-3.13-3.74-7.29-3.74-12.5c0-4.81,1.25-9.02,3.74-12.62c2.49-3.61,5.99-6.37,10.47-8.3
			s9.68-2.89,15.59-2.89c8.4,0,15.28,2.03,20.64,6.07c5.36,4.05,8.33,9.6,8.92,16.65h-15.71c-0.25-3.04-1.75-5.65-4.49-7.82
			c-2.74-2.16-6.36-3.25-10.85-3.25c-4.07,0-7.4,1-9.98,3.01c-2.58,2-3.87,4.89-3.87,8.66c0,2.57,0.81,4.67,2.43,6.31
			c1.62,1.64,3.68,2.95,6.17,3.91s5.9,2,10.23,3.13c5.74,1.52,10.41,3.05,14.03,4.57c3.62,1.52,6.69,3.87,9.23,7.03
			c2.53,3.17,3.8,7.39,3.8,12.69c0,4.25-1.18,8.26-3.55,12.02c-2.37,3.77-5.82,6.79-10.35,9.08c-4.53,2.28-9.87,3.43-16.02,3.43
			C1648.32,1059.86,1643.08,1058.88,1638.43,1056.92z"/>
		<path class="st1" d="M1715.12,975.46v83.57h-14.22v-83.57H1715.12z"/>
		<path class="st1" d="M1735.01,995.05c3.95-6.49,9.31-11.56,16.09-15.21c6.78-3.65,14.2-5.47,22.26-5.47
			c9.23,0,17.44,2.18,24.63,6.55c7.19,4.37,12.41,10.56,15.65,18.58h-17.08c-2.25-4.41-5.36-7.7-9.35-9.86
			c-3.99-2.17-8.6-3.25-13.84-3.25c-5.74,0-10.85,1.24-15.34,3.73c-4.49,2.49-8,6.05-10.54,10.7c-2.54,4.65-3.8,10.06-3.8,16.23
			c0,6.17,1.27,11.58,3.8,16.23c2.54,4.65,6.05,8.24,10.54,10.76c4.49,2.53,9.6,3.79,15.34,3.79c5.24,0,9.85-1.08,13.84-3.25
			c3.99-2.16,7.11-5.45,9.35-9.86h17.08c-3.24,8.02-8.46,14.19-15.65,18.52c-7.19,4.33-15.4,6.49-24.63,6.49
			c-8.15,0-15.59-1.82-22.32-5.47c-6.73-3.65-12.08-8.72-16.03-15.21c-3.95-6.49-5.92-13.83-5.92-22
			C1729.09,1008.88,1731.06,1001.55,1735.01,995.05z"/>
	</g>
</g>
<g id="Слой_5">
</g>
<g id="Слой_6">
</g>
<g id="Слой_7">
</g>
<g id="Слой_8">
</g>
</svg>
